<?xml version="1.0" encoding="UTF-8"?>
<svg width="100mm" height="100mm" version="1.1" viewBox="0 0 100 100" xmlns="http://www.w3.org/2000/svg" xmlns:cc="http://creativecommons.org/ns#" xmlns:dc="http://purl.org/dc/elements/1.1/" xmlns:rdf="http://www.w3.org/1999/02/22-rdf-syntax-ns#">
<g transform="translate(0,-197)">
<path d="m50.002 197a50 50 0 0 0 -50 50 50 50 0 0 0 50 50 50 50 0 0 0 50 -50 50 50 0 0 0 -50 -50zm-3.0255 8.5403c14.137 0.0689 29.496 8.0356 32.402 22.961-20.527-6.0014-32.571-9.5987-52.628-15.455 4.7487-5.0976 12.295-7.5445 20.226-7.5059zm-27.298 23.633c12.302 3.5746 30.443 9.638 46.514 14.885 2.3148 0.88108 4.7918 2.0737 7.0945 3.9218 1.7196 1.7494 3.2717 3.8668 4.1682 5.8329 1.5138 3.2995 2.3875 7.3582 2.8705 11.306-16.468-5.3092-32.633-9.8232-48.497-15.576-2.2413-0.81314-4.3133-1.7289-6.1447-3.5306-3.0022-2.7827-5.0302-6.5776-5.6437-10.754-0.27527-1.9858-0.33256-4.0397-0.36202-6.0857zm0.76654 36.614c20.56 5.7903 32.624 9.2638 52.713 14.914-12.835 14.09-48.866 8.911-52.713-14.914z" fill="#37abc8" stroke-width="0"/>
</g>
</svg>
